<?xml version="1.0" encoding="utf-8"?>
<!-- Generator: Adobe Illustrator 19.1.0, SVG Export Plug-In . SVG Version: 6.00 Build 0)  -->
<svg version="1.1" id="Layer_1" xmlns="http://www.w3.org/2000/svg" xmlns:xlink="http://www.w3.org/1999/xlink" x="0px" y="0px"
	 viewBox="0 0 195.3 178.6" style="enable-background:new 0 0 195.3 178.6;" xml:space="preserve">
<style type="text/css">
	.st0{fill:#D67928;}
	.st1{fill:#FFFFFF;}
</style>
<g>
	<g>
		<path class="st0" d="M3.9,153.1h1.4v7.8c0,1.3,0.2,2.2,0.6,2.8c0.4,0.6,1.1,0.9,2.1,0.9c0.5,0,1-0.1,1.5-0.3
			c0.5-0.2,1-0.5,1.4-0.9c0.5-0.4,0.8-0.8,1.1-1.3c0.2-0.4,0.4-1,0.4-1.8v-7.2h1.4v12.4h-1.4v-2c-1.3,1.6-2.8,2.4-4.5,2.4
			c-1.4,0-2.4-0.4-3-1.2c-0.6-0.8-0.9-1.9-0.9-3.4V153.1z"/>
		<path class="st0" d="M15.2,153.1h1.4v2c0.7-0.8,1.4-1.5,2.1-1.8c0.8-0.4,1.6-0.6,2.4-0.6c1.4,0,2.4,0.4,3.1,1.2
			c0.7,0.8,1,1.9,1,3.3v8.2H24v-7.8c0-1.3-0.2-2.2-0.7-2.8c-0.5-0.6-1.2-0.9-2.2-0.9c-0.5,0-1,0.1-1.5,0.3c-0.5,0.2-1,0.5-1.5,0.9
			c-0.5,0.4-0.8,0.8-1.1,1.3c-0.2,0.4-0.4,1-0.4,1.8v7.2h-1.4V153.1z"/>
		<path class="st0" d="M27.5,162.1c0.2,1,0.6,1.6,1.2,2c0.6,0.4,1.6,0.6,2.7,0.6c1.2,0,2-0.2,2.5-0.7c0.5-0.4,0.7-1,0.7-1.7
			c0-0.3,0-0.6-0.1-0.8c-0.1-0.2-0.2-0.5-0.4-0.7c-0.2-0.2-0.4-0.4-0.8-0.5c-0.3-0.1-0.8-0.3-1.3-0.4l-1.5-0.2
			c-0.7-0.1-1.2-0.2-1.8-0.4c-0.5-0.2-1-0.4-1.3-0.6c-0.4-0.3-0.6-0.6-0.8-1c-0.2-0.4-0.3-0.9-0.3-1.5c0-0.5,0.1-1,0.4-1.5
			c0.2-0.4,0.6-0.8,1-1.1c0.4-0.3,0.9-0.5,1.5-0.7c0.6-0.2,1.2-0.2,1.8-0.2c0.8,0,1.6,0.1,2.1,0.3c0.6,0.2,1,0.4,1.4,0.7
			c0.4,0.3,0.6,0.6,0.8,1c0.2,0.4,0.4,0.8,0.5,1.2l-1.3,0.3c-0.1-0.4-0.3-0.7-0.4-1c-0.2-0.3-0.4-0.5-0.6-0.7
			c-0.3-0.2-0.6-0.3-1-0.4c-0.4-0.1-0.9-0.1-1.4-0.1c-0.6,0-1.2,0.1-1.6,0.2c-0.4,0.1-0.8,0.3-1,0.5c-0.3,0.2-0.5,0.4-0.6,0.7
			c-0.1,0.3-0.2,0.6-0.2,0.8c0,0.3,0,0.5,0.1,0.8c0.1,0.2,0.2,0.4,0.4,0.6c0.2,0.2,0.5,0.3,0.8,0.5c0.3,0.1,0.8,0.2,1.4,0.3l1.9,0.3
			c1.3,0.2,2.3,0.6,2.9,1.2c0.6,0.6,1,1.4,1,2.5c0,0.5-0.1,0.9-0.3,1.4c-0.2,0.4-0.5,0.8-0.9,1.1c-0.4,0.3-0.9,0.6-1.5,0.7
			c-0.6,0.2-1.3,0.3-2,0.3c-0.8,0-1.4-0.1-2.1-0.2c-0.6-0.1-1.2-0.4-1.6-0.7c-0.5-0.3-0.8-0.7-1.1-1.2c-0.3-0.5-0.5-1.1-0.5-1.8
			H27.5z"/>
		<path class="st0" d="M37.9,154.3H36v-1.2h1.9v-3.4h1.4v3.4h3.5v1.2h-3.5v8.1c0,0.6,0.1,1.1,0.4,1.5c0.3,0.4,0.7,0.6,1.3,0.6
			c0.4,0,0.8,0,1.1-0.1c0.3-0.1,0.5-0.1,0.8-0.2l0.3,1.1c-0.2,0.1-0.5,0.2-0.9,0.3c-0.3,0.1-0.8,0.1-1.4,0.1c-0.7,0-1.3-0.1-1.7-0.4
			c-0.4-0.2-0.7-0.6-0.9-0.9c-0.2-0.4-0.3-0.8-0.4-1.4c0-0.5-0.1-1-0.1-1.6V154.3z"/>
		<path class="st0" d="M48.2,165.9c-0.9,0-1.7-0.2-2.4-0.5c-0.7-0.3-1.3-0.7-1.8-1.3c-0.5-0.6-0.9-1.3-1.1-2.1
			c-0.3-0.8-0.4-1.7-0.4-2.7c0-1,0.1-1.9,0.4-2.7c0.3-0.8,0.7-1.5,1.2-2.1c0.5-0.6,1.1-1,1.8-1.3c0.7-0.3,1.5-0.5,2.4-0.5
			c0.9,0,1.7,0.2,2.4,0.5c0.7,0.3,1.3,0.7,1.8,1.3c0.5,0.6,0.9,1.3,1.1,2.1c0.3,0.8,0.4,1.7,0.4,2.7c0,1-0.1,1.9-0.4,2.7
			c-0.3,0.8-0.7,1.5-1.2,2.1c-0.5,0.6-1.1,1-1.8,1.3C49.9,165.7,49.1,165.9,48.2,165.9z M48.2,164.7c0.8,0,1.4-0.1,2-0.4
			c0.5-0.3,1-0.7,1.3-1.1c0.4-0.5,0.6-1,0.8-1.7c0.2-0.7,0.2-1.4,0.2-2.1c0-0.7-0.1-1.4-0.2-2.1c-0.2-0.6-0.4-1.2-0.8-1.7
			c-0.4-0.5-0.8-0.9-1.3-1.1c-0.5-0.3-1.2-0.4-2-0.4c-0.8,0-1.4,0.1-2,0.4c-0.6,0.3-1,0.7-1.3,1.1c-0.3,0.5-0.6,1-0.8,1.7
			c-0.2,0.6-0.2,1.3-0.2,2.1s0.1,1.5,0.2,2.1c0.2,0.7,0.4,1.2,0.8,1.7c0.3,0.5,0.8,0.9,1.3,1.1C46.8,164.6,47.5,164.7,48.2,164.7z"
			/>
		<path class="st0" d="M55.2,153.1h1.4v1.8c0.6-0.7,1.2-1.3,1.8-1.6c0.7-0.4,1.5-0.6,2.4-0.6c0.9,0,1.7,0.2,2.4,0.5
			c0.7,0.3,1.2,0.8,1.7,1.4c0.4,0.6,0.8,1.3,1,2c0.2,0.8,0.3,1.6,0.3,2.5c0,1.1-0.1,2-0.4,2.8c-0.3,0.8-0.6,1.5-1.1,2.1
			c-0.5,0.6-1.1,1-1.7,1.3c-0.7,0.3-1.4,0.5-2.3,0.5c-0.8,0-1.5-0.2-2.2-0.5c-0.7-0.3-1.3-0.8-1.9-1.6v6.3h-1.4V153.1z M56.5,159.8
			c0,0.5,0,1,0.1,1.4c0.1,0.4,0.2,0.8,0.3,1.1c0.1,0.3,0.3,0.6,0.5,0.9c0.2,0.2,0.5,0.5,0.8,0.7c0.4,0.3,0.7,0.5,1.1,0.6
			c0.4,0.1,0.8,0.2,1.3,0.2c0.6,0,1.1-0.1,1.6-0.3c0.5-0.2,0.9-0.5,1.3-0.9c0.4-0.4,0.6-1,0.9-1.7c0.2-0.7,0.3-1.5,0.3-2.5
			c0-1-0.1-1.8-0.3-2.5c-0.2-0.7-0.5-1.2-0.9-1.6c-0.4-0.4-0.8-0.7-1.2-0.9c-0.5-0.2-0.9-0.3-1.4-0.3c-0.5,0-0.9,0.1-1.3,0.2
			c-0.4,0.1-0.8,0.3-1.2,0.6c-0.6,0.4-1,0.9-1.3,1.6c-0.3,0.6-0.5,1.4-0.5,2.4V159.8z"/>
		<path class="st0" d="M67.3,153.1h1.4v1.8c0.6-0.7,1.2-1.3,1.8-1.6c0.7-0.4,1.5-0.6,2.4-0.6c0.9,0,1.7,0.2,2.4,0.5
			c0.7,0.3,1.2,0.8,1.7,1.4c0.4,0.6,0.8,1.3,1,2c0.2,0.8,0.3,1.6,0.3,2.5c0,1.1-0.1,2-0.4,2.8c-0.3,0.8-0.6,1.5-1.1,2.1
			c-0.5,0.6-1.1,1-1.7,1.3c-0.7,0.3-1.4,0.5-2.3,0.5c-0.8,0-1.5-0.2-2.2-0.5c-0.7-0.3-1.3-0.8-1.9-1.6v6.3h-1.4V153.1z M68.6,159.8
			c0,0.5,0,1,0.1,1.4c0.1,0.4,0.2,0.8,0.3,1.1c0.1,0.3,0.3,0.6,0.5,0.9c0.2,0.2,0.5,0.5,0.8,0.7c0.4,0.3,0.7,0.5,1.1,0.6
			c0.4,0.1,0.8,0.2,1.3,0.2c0.6,0,1.1-0.1,1.6-0.3c0.5-0.2,0.9-0.5,1.3-0.9c0.4-0.4,0.6-1,0.9-1.7c0.2-0.7,0.3-1.5,0.3-2.5
			c0-1-0.1-1.8-0.3-2.5c-0.2-0.7-0.5-1.2-0.9-1.6c-0.4-0.4-0.8-0.7-1.2-0.9c-0.5-0.2-0.9-0.3-1.4-0.3c-0.5,0-0.9,0.1-1.3,0.2
			c-0.4,0.1-0.8,0.3-1.2,0.6c-0.6,0.4-1,0.9-1.3,1.6c-0.3,0.6-0.5,1.4-0.5,2.4V159.8z"/>
		<path class="st0" d="M87.3,163.8c-0.2,0.3-0.5,0.5-0.7,0.8c-0.3,0.2-0.6,0.5-1,0.7c-0.4,0.2-0.8,0.3-1.2,0.5
			c-0.4,0.1-0.9,0.2-1.5,0.2c-1.3,0-2.3-0.3-3.1-0.9c-0.8-0.6-1.2-1.6-1.2-2.8c0-0.8,0.2-1.5,0.5-2c0.4-0.5,0.8-0.9,1.4-1.2
			c0.6-0.3,1.2-0.5,2-0.6c0.7-0.1,1.5-0.2,2.3-0.2l2.4-0.1v-0.4c0-1.2-0.2-2.1-0.7-2.7c-0.5-0.6-1.3-0.8-2.5-0.8
			c-0.6,0-1.1,0-1.5,0.1c-0.4,0.1-0.7,0.2-1,0.4c-0.3,0.2-0.5,0.4-0.6,0.6c-0.2,0.2-0.3,0.5-0.4,0.8l-1.3-0.2c0.4-2,2.1-3,4.8-3
			c0.9,0,1.6,0.1,2.2,0.3c0.6,0.2,1.1,0.5,1.4,0.9c0.4,0.4,0.6,0.9,0.8,1.4c0.2,0.6,0.2,1.2,0.2,2v8.1h-1.4V163.8z M87.2,158.9
			L85,159c-0.9,0-1.7,0.1-2.3,0.3c-0.6,0.1-1.1,0.3-1.5,0.6c-0.4,0.2-0.7,0.6-0.8,0.9c-0.2,0.4-0.3,0.8-0.3,1.3
			c0,0.8,0.2,1.4,0.6,1.8c0.4,0.5,1.2,0.7,2.2,0.7c0.5,0,1.1-0.1,1.6-0.2c0.5-0.1,1-0.3,1.3-0.6c0.3-0.2,0.5-0.4,0.7-0.6
			c0.2-0.2,0.3-0.4,0.5-0.6s0.2-0.5,0.3-0.8c0-0.3,0.1-0.6,0.1-1V158.9z"/>
		<path class="st0" d="M90.1,148.4h1.4v6.6c0.6-0.7,1.2-1.3,1.8-1.6c0.7-0.4,1.5-0.6,2.4-0.6c0.9,0,1.7,0.2,2.4,0.5
			c0.7,0.3,1.2,0.8,1.7,1.4c0.4,0.6,0.8,1.3,1,2c0.2,0.8,0.3,1.6,0.3,2.5c0,1.1-0.1,2-0.4,2.8c-0.3,0.8-0.6,1.5-1.1,2.1
			c-0.5,0.6-1.1,1-1.7,1.3c-0.7,0.3-1.4,0.5-2.3,0.5c-0.8,0-1.5-0.2-2.2-0.5c-0.7-0.3-1.3-0.8-1.9-1.6v1.7h-1.4V148.4z M91.5,159.8
			c0,0.5,0,1,0.1,1.4c0.1,0.4,0.2,0.8,0.3,1.1c0.1,0.3,0.3,0.6,0.5,0.9c0.2,0.2,0.5,0.5,0.8,0.7c0.4,0.3,0.7,0.5,1.1,0.6
			c0.4,0.1,0.8,0.2,1.3,0.2c0.6,0,1.1-0.1,1.6-0.3c0.5-0.2,0.9-0.5,1.3-0.9c0.4-0.4,0.6-1,0.9-1.7c0.2-0.7,0.3-1.5,0.3-2.5
			c0-1-0.1-1.8-0.3-2.5c-0.2-0.7-0.5-1.2-0.9-1.6c-0.4-0.4-0.8-0.7-1.2-0.9c-0.5-0.2-0.9-0.3-1.4-0.3c-0.5,0-0.9,0.1-1.3,0.2
			c-0.4,0.1-0.8,0.3-1.2,0.6c-0.6,0.4-1,0.9-1.3,1.6c-0.3,0.6-0.5,1.4-0.5,2.4V159.8z"/>
		<path class="st0" d="M102.3,148.4h1.4v17.1h-1.4V148.4z"/>
		<path class="st0" d="M115.6,162.3c-0.2,1.1-0.7,1.9-1.5,2.6c-0.8,0.7-2,1-3.6,1c-1.8,0-3.2-0.6-4.1-1.7c-1-1.1-1.5-2.7-1.5-4.7
			c0-1.1,0.1-2,0.4-2.9c0.3-0.8,0.7-1.5,1.2-2.1c0.5-0.6,1.1-1,1.8-1.3c0.7-0.3,1.4-0.4,2.2-0.4c1,0,1.8,0.2,2.4,0.5
			c0.7,0.3,1.2,0.7,1.6,1.3c0.4,0.5,0.7,1.2,0.9,1.9c0.2,0.7,0.3,1.5,0.3,2.4v0.9h-9.5c0,0.7,0.1,1.4,0.3,2c0.2,0.6,0.4,1.1,0.8,1.6
			c0.4,0.5,0.8,0.8,1.3,1.1c0.5,0.3,1.1,0.4,1.8,0.4c0.6,0,1.1-0.1,1.6-0.2c0.4-0.1,0.8-0.3,1.1-0.5c0.3-0.2,0.5-0.5,0.7-0.8
			c0.2-0.3,0.3-0.6,0.4-1H115.6z M114.4,158.5c0-0.7-0.1-1.3-0.2-1.8c-0.1-0.6-0.4-1-0.7-1.5c-0.3-0.4-0.7-0.7-1.2-0.9
			c-0.5-0.2-1.1-0.3-1.8-0.3c-1.2,0-2.2,0.4-2.9,1.1c-0.7,0.8-1.1,1.9-1.3,3.5H114.4z"/>
		<path class="st0" d="M116.6,153h3.3v1.7c0.5-0.7,1-1.2,1.6-1.6c0.6-0.3,1.3-0.5,2-0.5c0.9,0,1.7,0.2,2.2,0.6
			c0.6,0.4,1,0.9,1.2,1.6c0.6-0.8,1.2-1.3,1.8-1.7c0.6-0.3,1.3-0.5,2.1-0.5c1.3,0,2.3,0.4,2.9,1.1c0.6,0.7,1,1.9,1,3.5v8.4h-3.4
			v-7.9c0-0.4,0-0.8-0.1-1.1c-0.1-0.3-0.2-0.5-0.3-0.7c-0.1-0.2-0.3-0.3-0.5-0.3c-0.2-0.1-0.4-0.1-0.6-0.1c-0.3,0-0.6,0.1-0.9,0.2
			c-0.3,0.1-0.6,0.3-0.8,0.6c-0.2,0.2-0.4,0.5-0.5,0.8c-0.1,0.3-0.2,0.6-0.2,0.9v7.7H124v-7.9c0-0.4,0-0.8-0.1-1.1
			c-0.1-0.3-0.2-0.5-0.3-0.7c-0.1-0.2-0.3-0.3-0.5-0.3c-0.2-0.1-0.4-0.1-0.6-0.1c-0.3,0-0.6,0.1-0.9,0.2c-0.3,0.1-0.6,0.3-0.8,0.6
			c-0.2,0.2-0.4,0.5-0.5,0.8c-0.1,0.3-0.2,0.7-0.2,1v7.5h-3.4V153z"/>
		<path class="st0" d="M135.8,148.4h3.5v3h-3.5V148.4z M135.8,153h3.4v12.5h-3.4V153z"/>
		<path class="st0" d="M142.7,161.5c0.1,0.7,0.4,1.2,0.9,1.4c0.5,0.2,1.1,0.3,1.7,0.3c0.8,0,1.4-0.1,1.7-0.3c0.3-0.2,0.5-0.5,0.5-1
			c0-0.3-0.1-0.6-0.3-0.8c-0.2-0.2-0.6-0.4-1.2-0.5l-1.7-0.3c-1.5-0.2-2.7-0.7-3.4-1.2c-0.7-0.6-1.1-1.5-1.1-2.7
			c0-0.6,0.1-1.2,0.4-1.6c0.3-0.5,0.6-0.9,1.1-1.2c0.5-0.3,1.1-0.6,1.7-0.8c0.7-0.2,1.4-0.3,2.2-0.3c1,0,1.8,0.1,2.5,0.3
			c0.7,0.2,1.2,0.5,1.6,0.8c0.4,0.3,0.7,0.7,1,1.2c0.2,0.5,0.4,1,0.5,1.5l-3,0.4c-0.1-0.6-0.4-1-0.8-1.3c-0.4-0.3-0.9-0.4-1.7-0.4
			c-0.4,0-0.8,0-1.1,0.1c-0.3,0.1-0.5,0.2-0.7,0.3c-0.2,0.1-0.3,0.2-0.4,0.4s-0.1,0.3-0.1,0.4c0,0.4,0.1,0.7,0.4,0.9
			c0.2,0.2,0.7,0.3,1.5,0.5l1.6,0.3c0.9,0.1,1.6,0.3,2.2,0.6c0.6,0.2,1,0.5,1.4,0.8c0.3,0.3,0.6,0.7,0.7,1.2c0.1,0.4,0.2,1,0.2,1.6
			c0,1.2-0.4,2.1-1.3,2.8c-0.9,0.7-2.3,1.1-4.2,1.1c-0.8,0-1.5-0.1-2.1-0.2c-0.7-0.1-1.3-0.4-1.8-0.7c-0.5-0.3-1-0.8-1.3-1.3
			c-0.3-0.6-0.5-1.3-0.6-2.1H142.7z"/>
		<path class="st0" d="M153.7,161.5c0.1,0.7,0.4,1.2,0.9,1.4c0.5,0.2,1.1,0.3,1.7,0.3c0.8,0,1.4-0.1,1.7-0.3c0.3-0.2,0.5-0.5,0.5-1
			c0-0.3-0.1-0.6-0.3-0.8c-0.2-0.2-0.6-0.4-1.2-0.5l-1.7-0.3c-1.5-0.2-2.7-0.7-3.4-1.2c-0.7-0.6-1.1-1.5-1.1-2.7
			c0-0.6,0.1-1.2,0.4-1.6c0.3-0.5,0.6-0.9,1.1-1.2c0.5-0.3,1.1-0.6,1.7-0.8c0.7-0.2,1.4-0.3,2.2-0.3c1,0,1.8,0.1,2.5,0.3
			c0.7,0.2,1.2,0.5,1.6,0.8c0.4,0.3,0.7,0.7,1,1.2c0.2,0.5,0.4,1,0.5,1.5l-3,0.4c-0.1-0.6-0.4-1-0.8-1.3c-0.4-0.3-0.9-0.4-1.7-0.4
			c-0.4,0-0.8,0-1.1,0.1c-0.3,0.1-0.5,0.2-0.7,0.3c-0.2,0.1-0.3,0.2-0.4,0.4s-0.1,0.3-0.1,0.4c0,0.4,0.1,0.7,0.4,0.9
			c0.2,0.2,0.7,0.3,1.5,0.5l1.6,0.3c0.9,0.1,1.6,0.3,2.2,0.6c0.6,0.2,1,0.5,1.4,0.8c0.3,0.3,0.6,0.7,0.7,1.2c0.1,0.4,0.2,1,0.2,1.6
			c0,1.2-0.4,2.1-1.3,2.8c-0.9,0.7-2.3,1.1-4.2,1.1c-0.8,0-1.5-0.1-2.1-0.2c-0.7-0.1-1.3-0.4-1.8-0.7c-0.5-0.3-1-0.8-1.3-1.3
			c-0.3-0.6-0.5-1.3-0.6-2.1H153.7z"/>
		<path class="st0" d="M162.3,148.4h3.5v3h-3.5V148.4z M162.3,153h3.4v12.5h-3.4V153z"/>
		<path class="st0" d="M172.7,165.9c-2,0-3.6-0.6-4.7-1.7c-1.1-1.2-1.7-2.8-1.7-4.9c0-1,0.1-1.9,0.4-2.8c0.3-0.8,0.7-1.5,1.3-2.1
			c0.6-0.6,1.2-1,2-1.3c0.8-0.3,1.7-0.5,2.6-0.5c1,0,1.9,0.2,2.6,0.5c0.8,0.3,1.5,0.7,2,1.3c0.6,0.6,1,1.3,1.3,2.1
			c0.3,0.8,0.4,1.7,0.4,2.8c0,1-0.1,2-0.4,2.8c-0.3,0.8-0.7,1.5-1.3,2.1c-0.6,0.6-1.2,1-2,1.3C174.6,165.7,173.7,165.9,172.7,165.9z
			 M172.7,163.2c1,0,1.7-0.3,2.1-1c0.5-0.7,0.7-1.7,0.7-3c0-1.3-0.2-2.3-0.7-2.9c-0.5-0.7-1.2-1-2.1-1c-1,0-1.7,0.3-2.1,1
			c-0.5,0.7-0.7,1.6-0.7,2.9c0,1.3,0.2,2.3,0.7,3C171,162.9,171.8,163.2,172.7,163.2z"/>
		<path class="st0" d="M179.7,153h3.3v1.7c0.5-0.7,1.1-1.3,1.8-1.6c0.7-0.3,1.4-0.5,2.1-0.5c1.4,0,2.5,0.4,3.2,1.1
			c0.7,0.7,1,1.9,1,3.5v8.3h-3.4v-7.8c0-0.9-0.2-1.5-0.5-1.8c-0.3-0.3-0.8-0.5-1.3-0.5c-0.4,0-0.8,0.1-1.1,0.2
			c-0.3,0.1-0.6,0.3-0.9,0.6c-0.2,0.2-0.4,0.5-0.6,0.8c-0.2,0.3-0.2,0.7-0.2,1v7.5h-3.4V153z"/>
	</g>
	<path class="st1" d="M158.3,27.6l-22.6,70.1l-26.8-70.1h-0.3h-28h-0.1v62.3c0,7-1.2,12.3-3.7,15.7c-2.4,3.4-6.6,5.1-12.5,5.1
		s-10-1.7-12.5-5.1c-2.4-3.4-3.7-8.6-3.7-15.7V27.6H20.1v61.3c0,8.1,1,15.1,2.9,20.9c2,5.8,4.8,10.6,8.6,14.3
		c3.8,3.7,8.4,6.4,13.9,8.2c5.5,1.8,11.7,2.6,18.6,2.6c6.9,0,13.2-0.9,18.7-2.6c5.5-1.8,10.2-4.5,14-8.2c3.8-3.7,6.7-8.5,8.8-14.3
		c2.1-5.8,3.1-12.8,3.1-20.9v-8l16.5,51.4h20.5l18.6-57.6v35.3h26.5V27.6H158.3z"/>
	<rect x="164.3" y="127.5" class="st0" width="26.5" height="4.7"/>
	<rect x="164.3" y="120.2" class="st0" width="26.5" height="4.4"/>
	<rect x="164.3" y="112.9" class="st0" width="26.5" height="4.4"/>
	<polygon class="st1" points="12.3,10.7 5.7,10.7 5.7,17.3 5.7,136.7 5.7,143.3 12.3,143.3 190.8,143.3 190.8,136.7 12.3,136.7 
		12.3,17.3 184.2,17.3 184.2,25.5 190.8,25.5 190.8,17.3 190.8,11.6 190.8,10.7 	"/>
</g>
</svg>
