<?xml version="1.0" encoding="utf-8"?>
<!-- Generator: Adobe Illustrator 19.1.0, SVG Export Plug-In . SVG Version: 6.00 Build 0)  -->
<svg version="1.1" xmlns="http://www.w3.org/2000/svg" xmlns:xlink="http://www.w3.org/1999/xlink" x="0px" y="0px"
	 viewBox="-413 423.4 195.3 178.6" style="enable-background:new -413 423.4 195.3 178.6;" xml:space="preserve">
<style type="text/css">
	.st0{opacity:0.95;fill:url(#SVGID_1_);}
	.st1{opacity:0.95;fill:url(#SVGID_2_);}
	.st2{fill:#D67928;}
	.st3{fill:#FFFFFF;}
</style>
<g id="Layer_1">
	
		<radialGradient id="SVGID_1_" cx="-236" cy="513.4" r="85.0235" gradientTransform="matrix(4.500007e-11 -1 0.2235 1.005605e-11 -350.7282 277.4)" gradientUnits="userSpaceOnUse">
		<stop  offset="0" style="stop-color:#000000"/>
		<stop  offset="0.2303" style="stop-color:#020202;stop-opacity:0.9521"/>
		<stop  offset="0.36" style="stop-color:#0B090A;stop-opacity:0.9251"/>
		<stop  offset="0.4643" style="stop-color:#181516;stop-opacity:0.9034"/>
		<stop  offset="0.5046" style="stop-color:#201C1D;stop-opacity:0.895"/>
		<stop  offset="0.681" style="stop-color:#1B1818;stop-opacity:0.5764"/>
		<stop  offset="0.8937" style="stop-color:#0C0B0B;stop-opacity:0.192"/>
		<stop  offset="1" style="stop-color:#020202;stop-opacity:0"/>
	</radialGradient>
	<rect x="-413" y="423.4" class="st0" width="195.3" height="178.6"/>
</g>
<g id="Layer_3">
	
		<radialGradient id="SVGID_2_" cx="-312" cy="581.4" r="96.1301" gradientTransform="matrix(0.9999 1.428426e-02 -2.525822e-03 0.1768 1.4367 483.0608)" gradientUnits="userSpaceOnUse">
		<stop  offset="0" style="stop-color:#000000"/>
		<stop  offset="1" style="stop-color:#020202;stop-opacity:0"/>
	</radialGradient>
	<rect x="-413" y="423.4" class="st1" width="195.3" height="178.6"/>
</g>
<g id="Layer_2">
	<g>
		<g>
			<path class="st2" d="M-409.1,575.5h1.4v7.8c0,1.3,0.2,2.2,0.6,2.8c0.4,0.6,1.1,0.9,2.1,0.9c0.5,0,1-0.1,1.5-0.3s1-0.5,1.4-0.9
				c0.5-0.4,0.8-0.8,1.1-1.3c0.2-0.4,0.4-1,0.4-1.8v-7.2h1.4v12.4h-1.4v-2c-1.3,1.6-2.8,2.4-4.5,2.4c-1.4,0-2.4-0.4-3-1.2
				c-0.6-0.8-0.9-1.9-0.9-3.4v-8.2H-409.1z"/>
			<path class="st2" d="M-397.8,575.5h1.4v2c0.7-0.8,1.4-1.5,2.1-1.8c0.8-0.4,1.6-0.6,2.4-0.6c1.4,0,2.4,0.4,3.1,1.2
				c0.7,0.8,1,1.9,1,3.3v8.2h-1.2V580c0-1.3-0.2-2.2-0.7-2.8c-0.5-0.6-1.2-0.9-2.2-0.9c-0.5,0-1,0.1-1.5,0.3c-0.5,0.2-1,0.5-1.5,0.9
				c-0.5,0.4-0.8,0.8-1.1,1.3c-0.2,0.4-0.4,1-0.4,1.8v7.2h-1.4C-397.8,587.8-397.8,575.5-397.8,575.5z"/>
			<path class="st2" d="M-385.5,584.5c0.2,1,0.6,1.6,1.2,2c0.6,0.4,1.6,0.6,2.7,0.6c1.2,0,2-0.2,2.5-0.7c0.5-0.4,0.7-1,0.7-1.7
				c0-0.3,0-0.6-0.1-0.8c-0.1-0.2-0.2-0.5-0.4-0.7c-0.2-0.2-0.4-0.4-0.8-0.5c-0.3-0.1-0.8-0.3-1.3-0.4l-1.5-0.2
				c-0.7-0.1-1.2-0.2-1.8-0.4c-0.5-0.2-1-0.4-1.3-0.6c-0.4-0.3-0.6-0.6-0.8-1c-0.2-0.4-0.3-0.9-0.3-1.5c0-0.5,0.1-1,0.4-1.5
				c0.2-0.4,0.6-0.8,1-1.1c0.4-0.3,0.9-0.5,1.5-0.7c0.6-0.2,1.2-0.2,1.8-0.2c0.8,0,1.6,0.1,2.1,0.3c0.6,0.2,1,0.4,1.4,0.7
				c0.4,0.3,0.6,0.6,0.8,1c0.2,0.4,0.4,0.8,0.5,1.2l-1.3,0.3c-0.1-0.4-0.3-0.7-0.4-1c-0.2-0.3-0.4-0.5-0.6-0.7
				c-0.3-0.2-0.6-0.3-1-0.4c-0.4-0.1-0.9-0.1-1.4-0.1c-0.6,0-1.2,0.1-1.6,0.2c-0.4,0.1-0.8,0.3-1,0.5c-0.3,0.2-0.5,0.4-0.6,0.7
				c-0.1,0.3-0.2,0.6-0.2,0.8c0,0.3,0,0.5,0.1,0.8c0.1,0.2,0.2,0.4,0.4,0.6c0.2,0.2,0.5,0.3,0.8,0.5c0.3,0.1,0.8,0.2,1.4,0.3
				l1.9,0.3c1.3,0.2,2.3,0.6,2.9,1.2s1,1.4,1,2.5c0,0.5-0.1,0.9-0.3,1.4c-0.2,0.4-0.5,0.8-0.9,1.1c-0.4,0.3-0.9,0.6-1.5,0.7
				c-0.6,0.2-1.3,0.3-2,0.3c-0.8,0-1.4-0.1-2.1-0.2c-0.6-0.1-1.2-0.4-1.6-0.7c-0.5-0.3-0.8-0.7-1.1-1.2c-0.3-0.5-0.5-1.1-0.5-1.8
				L-385.5,584.5L-385.5,584.5z"/>
			<path class="st2" d="M-375.1,576.7h-1.9v-1.2h1.9v-3.4h1.4v3.4h3.5v1.2h-3.5v8.1c0,0.6,0.1,1.1,0.4,1.5c0.3,0.4,0.7,0.6,1.3,0.6
				c0.4,0,0.8,0,1.1-0.1c0.3-0.1,0.5-0.1,0.8-0.2l0.3,1.1c-0.2,0.1-0.5,0.2-0.9,0.3c-0.3,0.1-0.8,0.1-1.4,0.1
				c-0.7,0-1.3-0.1-1.7-0.4c-0.4-0.2-0.7-0.6-0.9-0.9c-0.2-0.4-0.3-0.8-0.4-1.4c0-0.5-0.1-1-0.1-1.6v-7.1H-375.1z"/>
			<path class="st2" d="M-364.8,588.3c-0.9,0-1.7-0.2-2.4-0.5c-0.7-0.3-1.3-0.7-1.8-1.3c-0.5-0.6-0.9-1.3-1.1-2.1
				c-0.3-0.8-0.4-1.7-0.4-2.7s0.1-1.9,0.4-2.7c0.3-0.8,0.7-1.5,1.2-2.1c0.5-0.6,1.1-1,1.8-1.3c0.7-0.3,1.5-0.5,2.4-0.5
				c0.9,0,1.7,0.2,2.4,0.5c0.7,0.3,1.3,0.7,1.8,1.3c0.5,0.6,0.9,1.3,1.1,2.1c0.3,0.8,0.4,1.7,0.4,2.7s-0.1,1.9-0.4,2.7
				c-0.3,0.8-0.7,1.5-1.2,2.1c-0.5,0.6-1.1,1-1.8,1.3C-363.1,588.1-363.9,588.3-364.8,588.3z M-364.8,587.1c0.8,0,1.4-0.1,2-0.4
				c0.5-0.3,1-0.7,1.3-1.1c0.4-0.5,0.6-1,0.8-1.7c0.2-0.7,0.2-1.4,0.2-2.1s-0.1-1.4-0.2-2.1c-0.2-0.6-0.4-1.2-0.8-1.7
				s-0.8-0.9-1.3-1.1c-0.5-0.3-1.2-0.4-2-0.4c-0.8,0-1.4,0.1-2,0.4c-0.6,0.3-1,0.7-1.3,1.1c-0.3,0.5-0.6,1-0.8,1.7
				c-0.2,0.6-0.2,1.3-0.2,2.1s0.1,1.5,0.2,2.1c0.2,0.7,0.4,1.2,0.8,1.7c0.3,0.5,0.8,0.9,1.3,1.1C-366.2,587-365.5,587.1-364.8,587.1
				z"/>
			<path class="st2" d="M-357.8,575.5h1.4v1.8c0.6-0.7,1.2-1.3,1.8-1.6c0.7-0.4,1.5-0.6,2.4-0.6c0.9,0,1.7,0.2,2.4,0.5
				c0.7,0.3,1.2,0.8,1.7,1.4c0.4,0.6,0.8,1.3,1,2c0.2,0.8,0.3,1.6,0.3,2.5c0,1.1-0.1,2-0.4,2.8c-0.3,0.8-0.6,1.5-1.1,2.1
				c-0.5,0.6-1.1,1-1.7,1.3c-0.7,0.3-1.4,0.5-2.3,0.5c-0.8,0-1.5-0.2-2.2-0.5s-1.3-0.8-1.9-1.6v6.3h-1.4V575.5z M-356.5,582.2
				c0,0.5,0,1,0.1,1.4c0.1,0.4,0.2,0.8,0.3,1.1s0.3,0.6,0.5,0.9c0.2,0.2,0.5,0.5,0.8,0.7c0.4,0.3,0.7,0.5,1.1,0.6
				c0.4,0.1,0.8,0.2,1.3,0.2c0.6,0,1.1-0.1,1.6-0.3s0.9-0.5,1.3-0.9c0.4-0.4,0.6-1,0.9-1.7c0.2-0.7,0.3-1.5,0.3-2.5
				s-0.1-1.8-0.3-2.5c-0.2-0.7-0.5-1.2-0.9-1.6c-0.4-0.4-0.8-0.7-1.2-0.9c-0.5-0.2-0.9-0.3-1.4-0.3s-0.9,0.1-1.3,0.2
				c-0.4,0.1-0.8,0.3-1.2,0.6c-0.6,0.4-1,0.9-1.3,1.6c-0.3,0.6-0.5,1.4-0.5,2.4L-356.5,582.2L-356.5,582.2z"/>
			<path class="st2" d="M-345.7,575.5h1.4v1.8c0.6-0.7,1.2-1.3,1.8-1.6c0.7-0.4,1.5-0.6,2.4-0.6c0.9,0,1.7,0.2,2.4,0.5
				c0.7,0.3,1.2,0.8,1.7,1.4c0.4,0.6,0.8,1.3,1,2c0.2,0.8,0.3,1.6,0.3,2.5c0,1.1-0.1,2-0.4,2.8c-0.3,0.8-0.6,1.5-1.1,2.1
				c-0.5,0.6-1.1,1-1.7,1.3c-0.7,0.3-1.4,0.5-2.3,0.5c-0.8,0-1.5-0.2-2.2-0.5c-0.7-0.3-1.3-0.8-1.9-1.6v6.3h-1.4
				C-345.7,592.4-345.7,575.5-345.7,575.5z M-344.4,582.2c0,0.5,0,1,0.1,1.4c0.1,0.4,0.2,0.8,0.3,1.1s0.3,0.6,0.5,0.9
				c0.2,0.2,0.5,0.5,0.8,0.7c0.4,0.3,0.7,0.5,1.1,0.6c0.4,0.1,0.8,0.2,1.3,0.2c0.6,0,1.1-0.1,1.6-0.3s0.9-0.5,1.3-0.9
				c0.4-0.4,0.6-1,0.9-1.7c0.2-0.7,0.3-1.5,0.3-2.5s-0.1-1.8-0.3-2.5c-0.2-0.7-0.5-1.2-0.9-1.6c-0.4-0.4-0.8-0.7-1.2-0.9
				c-0.5-0.2-0.9-0.3-1.4-0.3s-0.9,0.1-1.3,0.2c-0.4,0.1-0.8,0.3-1.2,0.6c-0.6,0.4-1,0.9-1.3,1.6c-0.3,0.6-0.5,1.4-0.5,2.4v1H-344.4
				z"/>
			<path class="st2" d="M-325.7,586.2c-0.2,0.3-0.5,0.5-0.7,0.8c-0.3,0.2-0.6,0.5-1,0.7s-0.8,0.3-1.2,0.5c-0.4,0.1-0.9,0.2-1.5,0.2
				c-1.3,0-2.3-0.3-3.1-0.9c-0.8-0.6-1.2-1.6-1.2-2.8c0-0.8,0.2-1.5,0.5-2c0.4-0.5,0.8-0.9,1.4-1.2c0.6-0.3,1.2-0.5,2-0.6
				c0.7-0.1,1.5-0.2,2.3-0.2l2.4-0.1v-0.4c0-1.2-0.2-2.1-0.7-2.7s-1.3-0.8-2.5-0.8c-0.6,0-1.1,0-1.5,0.1c-0.4,0.1-0.7,0.2-1,0.4
				c-0.3,0.2-0.5,0.4-0.6,0.6c-0.2,0.2-0.3,0.5-0.4,0.8l-1.3-0.2c0.4-2,2.1-3,4.8-3c0.9,0,1.6,0.1,2.2,0.3c0.6,0.2,1.1,0.5,1.4,0.9
				c0.4,0.4,0.6,0.9,0.8,1.4c0.2,0.6,0.2,1.2,0.2,2v8.1h-1.4L-325.7,586.2L-325.7,586.2z M-325.8,581.3l-2.2,0.1
				c-0.9,0-1.7,0.1-2.3,0.3c-0.6,0.1-1.1,0.3-1.5,0.6c-0.4,0.2-0.7,0.6-0.8,0.9c-0.2,0.4-0.3,0.8-0.3,1.3c0,0.8,0.2,1.4,0.6,1.8
				c0.4,0.5,1.2,0.7,2.2,0.7c0.5,0,1.1-0.1,1.6-0.2c0.5-0.1,1-0.3,1.3-0.6c0.3-0.2,0.5-0.4,0.7-0.6c0.2-0.2,0.3-0.4,0.5-0.6
				c0.2-0.2,0.2-0.5,0.3-0.8c0-0.3,0.1-0.6,0.1-1v-1.9H-325.8z"/>
			<path class="st2" d="M-322.9,570.8h1.4v6.6c0.6-0.7,1.2-1.3,1.8-1.6c0.7-0.4,1.5-0.6,2.4-0.6c0.9,0,1.7,0.2,2.4,0.5
				c0.7,0.3,1.2,0.8,1.7,1.4c0.4,0.6,0.8,1.3,1,2c0.2,0.8,0.3,1.6,0.3,2.5c0,1.1-0.1,2-0.4,2.8c-0.3,0.8-0.6,1.5-1.1,2.1
				c-0.5,0.6-1.1,1-1.7,1.3c-0.7,0.3-1.4,0.5-2.3,0.5c-0.8,0-1.5-0.2-2.2-0.5c-0.7-0.3-1.3-0.8-1.9-1.6v1.7h-1.4
				C-322.9,587.9-322.9,570.8-322.9,570.8z M-321.5,582.2c0,0.5,0,1,0.1,1.4c0.1,0.4,0.2,0.8,0.3,1.1s0.3,0.6,0.5,0.9
				c0.2,0.2,0.5,0.5,0.8,0.7c0.4,0.3,0.7,0.5,1.1,0.6c0.4,0.1,0.8,0.2,1.3,0.2c0.6,0,1.1-0.1,1.6-0.3s0.9-0.5,1.3-0.9
				c0.4-0.4,0.6-1,0.9-1.7c0.2-0.7,0.3-1.5,0.3-2.5s-0.1-1.8-0.3-2.5c-0.2-0.7-0.5-1.2-0.9-1.6c-0.4-0.4-0.8-0.7-1.2-0.9
				c-0.5-0.2-0.9-0.3-1.4-0.3s-0.9,0.1-1.3,0.2c-0.4,0.1-0.8,0.3-1.2,0.6c-0.6,0.4-1,0.9-1.3,1.6c-0.3,0.6-0.5,1.4-0.5,2.4v1H-321.5
				z"/>
			<path class="st2" d="M-310.7,570.8h1.4v17.1h-1.4V570.8z"/>
			<path class="st2" d="M-297.4,584.7c-0.2,1.1-0.7,1.9-1.5,2.6c-0.8,0.7-2,1-3.6,1c-1.8,0-3.2-0.6-4.1-1.7c-1-1.1-1.5-2.7-1.5-4.7
				c0-1.1,0.1-2,0.4-2.9c0.3-0.8,0.7-1.5,1.2-2.1c0.5-0.6,1.1-1,1.8-1.3c0.7-0.3,1.4-0.4,2.2-0.4c1,0,1.8,0.2,2.4,0.5
				c0.7,0.3,1.2,0.7,1.6,1.3c0.4,0.5,0.7,1.2,0.9,1.9c0.2,0.7,0.3,1.5,0.3,2.4v0.9h-9.5c0,0.7,0.1,1.4,0.3,2
				c0.2,0.6,0.4,1.1,0.8,1.6s0.8,0.8,1.3,1.1c0.5,0.3,1.1,0.4,1.8,0.4c0.6,0,1.1-0.1,1.6-0.2c0.4-0.1,0.8-0.3,1.1-0.5
				c0.3-0.2,0.5-0.5,0.7-0.8c0.2-0.3,0.3-0.6,0.4-1L-297.4,584.7L-297.4,584.7z M-298.6,580.9c0-0.7-0.1-1.3-0.2-1.8
				c-0.1-0.6-0.4-1-0.7-1.5c-0.3-0.4-0.7-0.7-1.2-0.9s-1.1-0.3-1.8-0.3c-1.2,0-2.2,0.4-2.9,1.1c-0.7,0.8-1.1,1.9-1.3,3.5
				L-298.6,580.9L-298.6,580.9z"/>
			<path class="st2" d="M-296.4,575.4h3.3v1.7c0.5-0.7,1-1.2,1.6-1.6c0.6-0.3,1.3-0.5,2-0.5c0.9,0,1.7,0.2,2.2,0.6
				c0.6,0.4,1,0.9,1.2,1.6c0.6-0.8,1.2-1.3,1.8-1.7c0.6-0.3,1.3-0.5,2.1-0.5c1.3,0,2.3,0.4,2.9,1.1c0.6,0.7,1,1.9,1,3.5v8.4h-3.4
				v-7.9c0-0.4,0-0.8-0.1-1.1c-0.1-0.3-0.2-0.5-0.3-0.7s-0.3-0.3-0.5-0.3c-0.2-0.1-0.4-0.1-0.6-0.1c-0.3,0-0.6,0.1-0.9,0.2
				c-0.3,0.1-0.6,0.3-0.8,0.6c-0.2,0.2-0.4,0.5-0.5,0.8c-0.1,0.3-0.2,0.6-0.2,0.9v7.7h-3.4v-7.9c0-0.4,0-0.8-0.1-1.1
				c-0.1-0.3-0.2-0.5-0.3-0.7c-0.1-0.2-0.3-0.3-0.5-0.3c-0.2-0.1-0.4-0.1-0.6-0.1c-0.3,0-0.6,0.1-0.9,0.2c-0.3,0.1-0.6,0.3-0.8,0.6
				c-0.2,0.2-0.4,0.5-0.5,0.8c-0.1,0.3-0.2,0.7-0.2,1v7.5h-3.4v-12.7H-296.4z"/>
			<path class="st2" d="M-277.2,570.8h3.5v3h-3.5V570.8z M-277.2,575.4h3.4v12.5h-3.4V575.4z"/>
			<path class="st2" d="M-270.3,583.9c0.1,0.7,0.4,1.2,0.9,1.4s1.1,0.3,1.7,0.3c0.8,0,1.4-0.1,1.7-0.3c0.3-0.2,0.5-0.5,0.5-1
				c0-0.3-0.1-0.6-0.3-0.8c-0.2-0.2-0.6-0.4-1.2-0.5l-1.7-0.3c-1.5-0.2-2.7-0.7-3.4-1.2c-0.7-0.6-1.1-1.5-1.1-2.7
				c0-0.6,0.1-1.2,0.4-1.6c0.3-0.5,0.6-0.9,1.1-1.2c0.5-0.3,1.1-0.6,1.7-0.8c0.7-0.2,1.4-0.3,2.2-0.3c1,0,1.8,0.1,2.5,0.3
				c0.7,0.2,1.2,0.5,1.6,0.8c0.4,0.3,0.7,0.7,1,1.2c0.2,0.5,0.4,1,0.5,1.5l-3,0.4c-0.1-0.6-0.4-1-0.8-1.3c-0.4-0.3-0.9-0.4-1.7-0.4
				c-0.4,0-0.8,0-1.1,0.1c-0.3,0.1-0.5,0.2-0.7,0.3c-0.2,0.1-0.3,0.2-0.4,0.4c-0.1,0.2-0.1,0.3-0.1,0.4c0,0.4,0.1,0.7,0.4,0.9
				c0.2,0.2,0.7,0.3,1.5,0.5l1.6,0.3c0.9,0.1,1.6,0.3,2.2,0.6c0.6,0.2,1,0.5,1.4,0.8c0.3,0.3,0.6,0.7,0.7,1.2c0.1,0.4,0.2,1,0.2,1.6
				c0,1.2-0.4,2.1-1.3,2.8c-0.9,0.7-2.3,1.1-4.2,1.1c-0.8,0-1.5-0.1-2.1-0.2c-0.7-0.1-1.3-0.4-1.8-0.7s-1-0.8-1.3-1.3
				c-0.3-0.6-0.5-1.3-0.6-2.1h3V583.9z"/>
			<path class="st2" d="M-259.3,583.9c0.1,0.7,0.4,1.2,0.9,1.4s1.1,0.3,1.7,0.3c0.8,0,1.4-0.1,1.7-0.3s0.5-0.5,0.5-1
				c0-0.3-0.1-0.6-0.3-0.8c-0.2-0.2-0.6-0.4-1.2-0.5l-1.7-0.3c-1.5-0.2-2.7-0.7-3.4-1.2c-0.7-0.6-1.1-1.5-1.1-2.7
				c0-0.6,0.1-1.2,0.4-1.6c0.3-0.5,0.6-0.9,1.1-1.2c0.5-0.3,1.1-0.6,1.7-0.8c0.7-0.2,1.4-0.3,2.2-0.3c1,0,1.8,0.1,2.5,0.3
				c0.7,0.2,1.2,0.5,1.6,0.8c0.4,0.3,0.7,0.7,1,1.2c0.2,0.5,0.4,1,0.5,1.5l-3,0.4c-0.1-0.6-0.4-1-0.8-1.3c-0.4-0.3-0.9-0.4-1.7-0.4
				c-0.4,0-0.8,0-1.1,0.1c-0.3,0.1-0.5,0.2-0.7,0.3c-0.2,0.1-0.3,0.2-0.4,0.4c-0.1,0.2-0.1,0.3-0.1,0.4c0,0.4,0.1,0.7,0.4,0.9
				c0.2,0.2,0.7,0.3,1.5,0.5l1.6,0.3c0.9,0.1,1.6,0.3,2.2,0.6c0.6,0.2,1,0.5,1.4,0.8c0.3,0.3,0.6,0.7,0.7,1.2c0.1,0.4,0.2,1,0.2,1.6
				c0,1.2-0.4,2.1-1.3,2.8c-0.9,0.7-2.3,1.1-4.2,1.1c-0.8,0-1.5-0.1-2.1-0.2c-0.7-0.1-1.3-0.4-1.8-0.7s-1-0.8-1.3-1.3
				c-0.3-0.6-0.5-1.3-0.6-2.1h3V583.9z"/>
			<path class="st2" d="M-250.7,570.8h3.5v3h-3.5V570.8z M-250.7,575.4h3.4v12.5h-3.4V575.4z"/>
			<path class="st2" d="M-240.3,588.3c-2,0-3.6-0.6-4.7-1.7c-1.1-1.2-1.7-2.8-1.7-4.9c0-1,0.1-1.9,0.4-2.8c0.3-0.8,0.7-1.5,1.3-2.1
				s1.2-1,2-1.3c0.8-0.3,1.7-0.5,2.6-0.5c1,0,1.9,0.2,2.6,0.5c0.8,0.3,1.5,0.7,2,1.3c0.6,0.6,1,1.3,1.3,2.1c0.3,0.8,0.4,1.7,0.4,2.8
				c0,1-0.1,2-0.4,2.8c-0.3,0.8-0.7,1.5-1.3,2.1c-0.6,0.6-1.2,1-2,1.3C-238.4,588.1-239.3,588.3-240.3,588.3z M-240.3,585.6
				c1,0,1.7-0.3,2.1-1c0.5-0.7,0.7-1.7,0.7-3c0-1.3-0.2-2.3-0.7-2.9c-0.5-0.7-1.2-1-2.1-1c-1,0-1.7,0.3-2.1,1
				c-0.5,0.7-0.7,1.6-0.7,2.9c0,1.3,0.2,2.3,0.7,3C-242,585.3-241.2,585.6-240.3,585.6z"/>
			<path class="st2" d="M-233.3,575.4h3.3v1.7c0.5-0.7,1.1-1.3,1.8-1.6c0.7-0.3,1.4-0.5,2.1-0.5c1.4,0,2.5,0.4,3.2,1.1s1,1.9,1,3.5
				v8.3h-3.4v-7.8c0-0.9-0.2-1.5-0.5-1.8s-0.8-0.5-1.3-0.5c-0.4,0-0.8,0.1-1.1,0.2s-0.6,0.3-0.9,0.6c-0.2,0.2-0.4,0.5-0.6,0.8
				c-0.2,0.3-0.2,0.7-0.2,1v7.5h-3.4L-233.3,575.4L-233.3,575.4z"/>
		</g>
		<path class="st3" d="M-254.7,450l-22.6,70.1l-26.8-70.1h-0.3h-28h-0.1v62.3c0,7-1.2,12.3-3.7,15.7c-2.4,3.4-6.6,5.1-12.5,5.1
			c-5.9,0-10-1.7-12.5-5.1c-2.4-3.4-3.7-8.6-3.7-15.7V450h-28v61.3c0,8.1,1,15.1,2.9,20.9c2,5.8,4.8,10.6,8.6,14.3
			c3.8,3.7,8.4,6.4,13.9,8.2s11.7,2.6,18.6,2.6s13.2-0.9,18.7-2.6c5.5-1.8,10.2-4.5,14-8.2c3.8-3.7,6.7-8.5,8.8-14.3
			s3.1-12.8,3.1-20.9v-8l16.5,51.4h20.5l18.6-57.6v35.3h26.5V450H-254.7z"/>
		<rect x="-248.7" y="549.9" class="st2" width="26.5" height="4.7"/>
		<rect x="-248.7" y="542.6" class="st2" width="26.5" height="4.4"/>
		<rect x="-248.7" y="535.3" class="st2" width="26.5" height="4.4"/>
		<polygon class="st3" points="-400.7,433.1 -407.3,433.1 -407.3,439.7 -407.3,559.1 -407.3,565.7 -400.7,565.7 -222.2,565.7 
			-222.2,559.1 -400.7,559.1 -400.7,439.7 -228.8,439.7 -228.8,447.9 -222.2,447.9 -222.2,439.7 -222.2,434 -222.2,433.1 		"/>
	</g>
</g>
</svg>
